#define _width 5
#define _height 11
static char _bits[] = {
 0x1e,0x12,0x12,0x1e,0x00,0x00,0x00,0x00,0x00,0x00,0x00 };
