#define _width 5
#define _height 11
static char _bits[] = {
 0x1e,0x0e,0x06,0x02,0x00,0x00,0x00,0x00,0x00,0x00,0x00 };
