#define _width 16
#define _height 16
static char _bits[] = {
 0x00,0x00,0x00,0x00,0x00,0x0f,0x22,0x2f,0x44,0x4f,0x00,0x0f,0x00,0x00,0x22,
 0x22,0x44,0x44,0x00,0x00,0x00,0x00,0x22,0x22,0x44,0x44,0x00,0x00,0x00,0x00,
 0x00,0x00 };
