#define _width 16
#define _height 16
static char _bits[] = {
 0x00,0x00,0x00,0x00,0x00,0xf0,0x22,0xf2,0x44,0xf4,0x00,0xf0,0x00,0x00,0x22,
 0x22,0x44,0x44,0x00,0x00,0x00,0x00,0x22,0x22,0x44,0x44,0x00,0x00,0x00,0x00,
 0x00,0x00 };
