#define _width 7
#define _height 11
static char _bits[] = {
 0x3e,0x3e,0x3e,0x3e,0x3e,0x00,0x00,0x00,0x00,0x00,0x00 };
